<?xml version="1.0" standalone="no"?>
<!DOCTYPE svg PUBLIC "-//W3C//DTD SVG 1.1//EN" "http://www.w3.org/Graphics/SVG/1.1/DTD/svg11.dtd">
<svg xmlns="http://www.w3.org/2000/svg" width="1730.0860595703125" height="724.2329711914062" viewBox="0 0 1730.086 724.233">
  <g id="Group_37" data-name="Group 37" transform="translate(4463.832 -9055.176)">
    <path id="Path_219" data-name="Path 219" d="M581.117,253.6h0C581.117,114.186,466.979,0,327.515,0H0V723.945H581.117L361.78,504.609C485.289,487.933,581.117,381.436,581.117,253.6Z" transform="translate(-4463.832 9055.176)" fill="#fff"/>
    <ellipse id="Ellipse_5" data-name="Ellipse 5" cx="362.117" cy="362.117" rx="362.117" ry="362.117" transform="translate(-3863.396 9055.176)" fill="#fff"/>
    <rect id="Rectangle_6" data-name="Rectangle 6" width="344.479" height="723.897" transform="translate(-3078.225 9055.176)" fill="#fff"/>
    <g id="Group_11" data-name="Group 11" transform="translate(-3683.343 9087.535)">
      <path id="Path_113" data-name="Path 113" d="M243.555,21.894c-6.007-3.652-11.966-7.641-17.974-11.294L201.6,40.54Z" transform="translate(-13.241 7.981)" fill="#7ccab3"/>
      <path id="Path_114" data-name="Path 114" d="M221.431,6.86c-.336.336-1.009.336-1.346.673-2.018,1.346-3.989,2.018-6.344,1.346a4.573,4.573,0,0,0-2.98.336h0c-.336,1.346-1.009,2.643-1.346,3.652-1.346,2.98-3.989,2.018-6.344,2.307,0,2.018-.336,3.989-2.307,5.334a12.354,12.354,0,0,0-2.307,2.018,17.32,17.32,0,0,0-3.989,4.662l34.938,27.3Z" transform="translate(-40.376 -6.253)" fill="#63c3ac"/>
      <path id="Path_115" data-name="Path 115" d="M231.366,24.978c-8.987-5.671-17.637-11.294-26.624-16.964C203.06,7,201.426,6.332,200.08,7l7.3,47.577Z" transform="translate(-19.026 -6.734)" fill="#6dc5ad"/>
      <path id="Path_116" data-name="Path 116" d="M245.918,33.5,199.3,21.2c-.673,1.009-.673,2.307-1.009,3.652a24.089,24.089,0,0,1,2.307-1.346h2.018c-.336.673-.336,1.346-.673,1.682-1.346,1.009-2.307,2.307-3.652,2.98a14.717,14.717,0,0,0-6.344,7.641,14.262,14.262,0,0,1-3.316,4.325h0c-1.346.673-2.643,1.682-3.652,2.307l43.588,59.928Z" transform="translate(-76.493 48.322)" fill="#61c2a8"/>
      <path id="Path_117" data-name="Path 117" d="M197.961,25.76c-1.682,1.009-2.98,2.018-4.662,2.98a88.173,88.173,0,0,1-7.978,3.989c-2.307,1.009-3.316,2.643-3.652,5.334-.336,1.682-.336,2.98,1.346,3.652.336,0,.673.336,1.009.673,1.346,3.316,2.98,6.68,4.325,10.332h0a22.916,22.916,0,0,1,4.325,3.316l49.259,29.6Z" transform="translate(-89.762 65.677)" fill="#62c2a9"/>
      <path id="Path_118" data-name="Path 118" d="M239.419,85.264,271.378,30c-4.662-2.643-9.323-5.334-13.985-7.978L217.12,26.682Z" transform="translate(45.825 51.443)" fill="#66c3a7"/>
      <path id="Path_119" data-name="Path 119" d="M213.743,17.172c0,.673.336,1.682,0,2.307-1.346,2.643-2.643,5.671-4.325,8.314-1.009,1.682-2.643,2.643-3.989,3.989-1.346,2.643-2.98,5.334-4.325,7.978-2.307,1.682-4.662,3.316-6.968,5h0c-1.009,1.009-1.682,2.307-2.98,2.307a4.23,4.23,0,0,0-3.316,2.307l46.616,12.3-22.3-47.914h0C211.052,15.538,212.734,16.211,213.743,17.172Z" transform="translate(-65.609 20.007)" fill="#5bc1a9"/>
      <path id="Path_120" data-name="Path 120" d="M196.336,18.493h0a49.565,49.565,0,0,0-3.316,5.671l22.3,47.914L234.3,38.437l-34.938-27.3a10.93,10.93,0,0,0-2.018,6.344C197.345,17.868,196.672,18.156,196.336,18.493Z" transform="translate(-45.895 10.036)" fill="#62c2aa"/>
      <path id="Path_121" data-name="Path 121" d="M303.2,81.306l-22.3-58.246L200.36,68.667Z" transform="translate(-17.96 55.401)" fill="#63c2a6"/>
      <path id="Path_122" data-name="Path 122" d="M257.393,37.319C246.387,30.976,235.43,24.344,224.425,18l-7.3,24.317Z" transform="translate(45.825 36.144)" fill="#77c8af"/>
      <path id="Path_123" data-name="Path 123" d="M276.186,61.841l7.3-24.317c-5-2.98-10-6.007-14.994-8.987-8.314-5-16.628-10.332-24.942-15.667L201.6,31.18Z" transform="translate(-13.241 16.62)" fill="#73c7af"/>
      <path id="Path_124" data-name="Path 124" d="M216.643,16.76,197.66,50.4l93.521-3.364Z" transform="translate(-28.236 31.425)" fill="#67c3aa"/>
      <path id="Path_125" data-name="Path 125" d="M291.181,23.06,197.66,26.424l12.976,42.243Z" transform="translate(-28.236 55.401)" fill="#63c3a8"/>
      <path id="Path_126" data-name="Path 126" d="M192.27,73.582V76.9l10.669,30.277a8.081,8.081,0,0,1,9.323,3.316h0a17.686,17.686,0,0,1,1.682,3.652,30.807,30.807,0,0,0,1.346,4.325l32.295-58.583L182.37,48.88l6.968,19.656C191.261,69.257,191.934,70.939,192.27,73.582Z" transform="translate(-86.426 153.667)" fill="#6dc5a8"/>
      <path id="Path_127" data-name="Path 127" d="M189.133,65.388a1.236,1.236,0,0,1,.336,1.009l1.346,1.346a5.684,5.684,0,0,0,1.682.673L185.529,48.76,181.54,61.4C184.471,62.072,187.787,63.37,189.133,65.388Z" transform="translate(-89.585 153.21)" fill="#6fc5a8"/>
      <path id="Path_128" data-name="Path 128" d="M185.765,65.074a10.476,10.476,0,0,1-.673,4.662c-1.346,2.307-1.009,4.325-.336,6.344s.673,4.325,1.009,6.68c1.682,1.009,3.316,2.018,5,2.98,1.682-.336,3.652-.336,5.334-.673h.336L185.765,54.79Z" transform="translate(-79.585 176.159)" fill="#6fc5a8"/>
      <path id="Path_129" data-name="Path 129" d="M238.289,38.23,182.35,89.171l65.263,11.294Z" transform="translate(-86.502 113.135)" fill="#68c3a7"/>
      <path id="Path_130" data-name="Path 130" d="M228.8,87.7h0a18.763,18.763,0,0,0-.336-4.325c-1.009-5,1.009-6.344,5.671-7.641a2.838,2.838,0,0,0,2.643-2.307c.673-2.307,1.346-4.325,2.018-6.68a8.858,8.858,0,0,0,0-2.98c-.673-3.989,0-7.641,2.643-10L217.12,46.13,228.8,87.7Z" transform="translate(45.825 143.201)" fill="#35b994"/>
      <path id="Path_131" data-name="Path 131" d="M238,60.627c-2.018,1.682-4.325.673-6.344-2.307h0c-.673,1.009-1.346,1.682-2.018,2.643-1.009,2.018-2.643,2.643-5,3.316.336-3.652-2.018-4.325-3.989-5l5.334,18.983,16.964-17.637h0C241.315,59.281,239.969,58.945,238,60.627Z" transform="translate(59.259 189.593)" fill="#35b994"/>
      <path id="Path_132" data-name="Path 132" d="M241.943,61.674l-49.259-29.6a8.12,8.12,0,0,1,1.682,5c0,1.682,1.682,3.316,2.643,5,2.307,3.316,2.018,6.344-1.009,8.314-1.009.673-2.307.336-3.652.673-.673,0-2.018,0-2.307.673-.336.673-.336,2.018.336,2.307,2.307,2.307,1.346,4.325-.336,6.344-1.009,1.682-2.018,3.652-2.98,5.334h0c-.673.673-1.009,1.346-1.682,1.682-.673.673-2.018,1.346-2.307,2.307a4.055,4.055,0,0,1-1.682,1.682l5,40.945Z" transform="translate(-90.156 89.691)" fill="#6ac4aa"/>
      <path id="Path_133" data-name="Path 133" d="M224.6,32.55l-30.613,27.3,9.323,62.235Z" transform="translate(-42.203 91.518)" fill="#63c2a6"/>
      <path id="Path_134" data-name="Path 134" d="M254.423,97.17h0a2.543,2.543,0,0,0,.336-1.346c2.98-4.325,2.98-9.323,4.325-13.985.673-2.98,2.98-5.671,4.325-8.314,2.307-3.989,4.662-7.978,6.68-11.966,1.682-3.989,2.643-8.987,4.662-12.976a88.707,88.707,0,0,0,5.671-17.974l-58.583,22.3,31.286,44.934C253.078,97.507,253.751,97.17,254.423,97.17Z" transform="translate(63.788 84.135)" fill="#4abc9b"/>
      <path id="Path_135" data-name="Path 135" d="M192.5,41.376a3.566,3.566,0,0,1-2.643,0c-1.682-.336-2.98-1.009-4.662-1.346h0c-1.346,2.643-1.682,6.007-5.334,6.68,0,1.009.336,2.018.336,2.98,2.98,1.682,3.316,5,0,6.968h0c-.336,1.346-1.009,2.643-1.346,3.989-1.009,2.98,0,4.662,2.98,5.671,2.307.673,2.643,2.018,1.346,3.652-.673.673-1.346,1.682-2.018,2.307a3.953,3.953,0,0,0-.337,4.662c2.018,3.316,1.346,5.671-1.682,7.3l1.009,2.018L197.785,81.6Z" transform="translate(-101.265 119.985)" fill="#72c6ad"/>
      <path id="Path_136" data-name="Path 136" d="M179.689,58.816c-.336,1.346-.673,2.307.673,3.316,1.682,1.346,2.98,2.307,5.334,1.682A7.6,7.6,0,0,0,188,62.468a5.975,5.975,0,0,1,4.325-1.009l3.989-12.639L178.68,53.482c0,.336.336.673.336,1.009A19.7,19.7,0,0,1,179.689,58.816Z" transform="translate(-100.47 153.438)" fill="#82cbb0"/>
      <path id="Path_137" data-name="Path 137" d="M295.174,124.466l-5.334-18.983a10.972,10.972,0,0,1-2.98-1.346c-.673-.673-1.682-.336-2.307-1.009a5.72,5.72,0,0,1-2.307-2.643c-1.009-2.643-1.682-5-4.325-6.007-.673-.336-1.009-1.009-1.346-1.346-1.346-1.682-2.307-1.682-3.652,0-1.009,1.346-1.682,2.98-2.98,3.989-1.682,1.346-3.652,2.018-5.671.336,2.307-2.018,4.325-4.325,6.344-6.344h0c2.643-2.98,5.671-2.643,7.978.336a4.482,4.482,0,0,0,1.682,1.009,5.711,5.711,0,0,0,2.018-2.018c.673-1.009,1.346-2.018,2.018-2.98L272.346,46.18,202.47,179.3Z" transform="translate(-9.93 143.391)" fill="#2db894"/>
      <path id="Path_138" data-name="Path 138" d="M241.818,95.515l.673-.673c.673-.336,1.346-.336,1.682-.673,1.346-.673,2.307-1.346,3.652-2.018,1.009-1.009,2.018-1.682,2.98-2.643.673-1.009,1.346-2.018,2.018-2.98h0a26.146,26.146,0,0,0-4.325-2.643c.336-.336.336-.673.673-1.009l2.018,1.009h1.682a2.521,2.521,0,0,0-.336-1.682c-.673-.673-1.682-1.346-2.307-2.018a1.175,1.175,0,0,1,.336-.673c1.346.673,2.98,1.346,5,2.307.673-2.98,1.009-5.671,1.682-8.987,2.018,2.643,2.98,1.682,3.989-.336a8.919,8.919,0,0,1,1.682-2.018c-1.682,8.65-4.662,16.292-10.669,23.645,1.682,0,2.307.336,3.316.336,2.018-.336,4.325-1.009,6.344-1.346,1.346-.336,1.682-1.346,1.009-2.307A16.3,16.3,0,0,1,261.57,88.5c1.346.336,2.643.673,3.989,1.009-1.009-.673-2.018-1.346-3.316-2.307,1.009-.336,1.346-.336,1.682-.673.673-.336,1.682-.673,2.018-1.346.673-.673.673-1.682,1.009-2.307a3.576,3.576,0,0,1,1.346-1.682c.673-.336,1.682-.673,2.307-1.009L239.319,35.25l-22.3,52.912Z" transform="translate(45.445 101.794)" fill="#49bc9a"/>
      <path id="Path_139" data-name="Path 139" d="M280.905,98.1l22.3-52.912L200.36,32.55Z" transform="translate(-17.96 91.518)" fill="#57bfa1"/>
      <path id="Path_140" data-name="Path 140" d="M297.765,98.1,217.22,32.55l-21.29,89.532Z" transform="translate(-34.82 91.518)" fill="#5ac0a2"/>
      <path id="Path_141" data-name="Path 141" d="M227.889,179.359,297.765,46.19,195.93,70.171Z" transform="translate(-34.82 143.429)" fill="#4dbd9d"/>
      <path id="Path_142" data-name="Path 142" d="M224.719,78.955c-1.346.336-2.307,0-3.989-.673-3.652-1.682-3.989-1.346-5.671,2.018-2.643,5.671-6.968,10.332-13.312,11.63-2.018.336-3.989,1.009-6.344,1.346-.673,0-1.009.336-1.682.673-1.682,1.009-2.98,2.018-4.662,2.98l5.334,40.273,37.966-54.93Z" transform="translate(-60.966 261.806)" fill="#2eb892"/>
      <path id="Path_143" data-name="Path 143" d="M276.848,124.479c.673-2.307,2.307-2.643,3.989-2.98l.336-.336c0-1.346.336-3.316,0-3.316a9.4,9.4,0,0,0-4.325,0c-3.989,1.009-7.978,0-8.987-3.989,5.671,2.018,11.005,2.307,15.955-1.682v3.316h.336c.673-3.316,1.682-6.968,2.307-10.332,0-.336-1.346-1.682-1.346-1.682-1.009.336-2.018,1.346-2.98,1.682a9.372,9.372,0,0,1-3.989,1.346c-2.98-.673-5.334-5.671-4.325-9.323A15.4,15.4,0,0,1,275.5,100.5c1.346,4.662,3.652,5,6.968,1.682.673-.673,2.018-.673,2.643-1.009.673-.336,1.682-.673,2.018-1.346,1.682-6.007,2.98-11.966,4.325-17.974,0-.336,0-.336-.337-1.009-2.643,0-5,2.643-7.641.673-.673-.336-.673-1.346-1.346-2.307,2.307,0,4.325.673,3.652-2.98.336,0,.336.336.673.336l1.682,1.682c.673.673,1.346,1.682,1.682,1.346a5.554,5.554,0,0,0,2.643-2.018,30.99,30.99,0,0,0,1.346-5.334L213.94,91.223l62.571,34.938C276.511,125.488,276.848,125.152,276.848,124.479Z" transform="translate(33.723 242.57)" fill="#128a7f"/>
      <path id="Path_144" data-name="Path 144" d="M212.8,85.229h0c-.336,1.682-.673,2.98-2.307,3.316-.673,0-1.009,1.009-1.682,1.346a10.225,10.225,0,0,1-6.68,3.652c-2.307.336-3.316,1.682-4.325,3.652-.673,1.682-2.307,3.316-3.316,5-.336.673-.336,1.682-.673,2.018a73.931,73.931,0,0,1-7.3,3.652,2.144,2.144,0,0,1-2.018,0c-2.643-.336-3.316.336-2.98,2.98v.673l41.955,10L218.134,81.24A15.415,15.415,0,0,1,212.8,85.229Z" transform="translate(-89.991 276.822)" fill="#4cbc95"/>
      <path id="Path_145" data-name="Path 145" d="M198.867,78.159A8.945,8.945,0,0,1,196.56,79.5l7.641,3.316-4.325-5.671Z" transform="translate(-32.422 261.257)" fill="#4abc9b"/>
      <path id="Path_146" data-name="Path 146" d="M194.846,71.778c.673,2.018,1.346,3.652,2.018,5.671h0c4.325,1.009,7.978,3.652,11.294,6.68a22.62,22.62,0,0,1,3.652,4.325,31.955,31.955,0,0,1,2.307,5.334c3.652,1.346,6.344,3.652,6.68,7.978.336,2.98-2.018,6.007-5,6.968a16.551,16.551,0,0,0-4.325,1.682l4.325,5.671,21.29-21.29L193.5,68.51A25.113,25.113,0,0,1,194.846,71.778Z" transform="translate(-44.068 228.375)" fill="#38b997"/>
      <path id="Path_147" data-name="Path 147" d="M267.627,87.717c.673-3.652,1.346-7.641,2.018-11.294a23.747,23.747,0,0,0-2.98-1.346h0c-.337,4.325-4.325,2.307-6.68,3.989.336-2.018-.673-3.989,2.018-5.671a31.5,31.5,0,0,0,5.334-3.989c.673-.673.673-2.643.673-3.652,0-.336-1.682-1.346-2.307-1.009-2.307.673-5,1.682-7.3,2.307-2.307,1.009-4.325,2.018-6.68,2.98-1.009,0-1.682.336-2.643.336.336-.336.336-.673.673-1.346.673-1.009,1.346-2.643,2.307-3.316a41.19,41.19,0,0,1,6.68-3.316H221.78Z" transform="translate(63.56 205.083)" fill="#0fa88d"/>
      <path id="Path_148" data-name="Path 148" d="M278.263,119.372h0a30.2,30.2,0,0,1-3.316-1.682c1.009-3.989,4.662-2.018,6.968-3.989-1.346-1.346-2.643-2.98-3.989-4.325l.673-.673c1.682.336,3.316-.336,4.662,1.682,1.009,1.682,2.98,2.018,3.989.673L224.678,76.12,211.03,150.658Z" transform="translate(22.648 257.337)" fill="#0c8479"/>
      <path id="Path_149" data-name="Path 149" d="M213.87,128.021l79.872-18.983c.336-1.009.336-2.018.673-3.316,1.009-6.007,2.307-12.3,3.316-18.31L251.788,62.47Z" transform="translate(33.456 205.388)" fill="#039984"/>
      <path id="Path_150" data-name="Path 150" d="M256.837,128.021,294.755,62.47,202.58,117.4Z" transform="translate(-9.511 205.388)" fill="#13a488"/>
      <path id="Path_151" data-name="Path 151" d="M193.8,121.034l.673.673A22.975,22.975,0,0,1,209.8,134.346l43.589,26.288L221.435,51.11,189.14,109.693a76.983,76.983,0,0,0,2.307,7.641C192.168,118.68,193.129,119.689,193.8,121.034Z" transform="translate(-60.661 162.154)" fill="#53be9e"/>
      <path id="Path_152" data-name="Path 152" d="M198.15,95.19,273.7,84.521,219.44,73.9Z" transform="translate(-26.371 248.888)" fill="#1ea98b"/>
      <path id="Path_153" data-name="Path 153" d="M260.049,150.7,273.7,76.11,198.15,86.779Z" transform="translate(-26.371 257.299)" fill="#159882"/>
      <path id="Path_154" data-name="Path 154" d="M224.6,66,211.627,23.76,193.99,93.3Z" transform="translate(-42.203 58.065)" fill="#62c2a7"/>
      <path id="Path_155" data-name="Path 155" d="M218.732,125.645c1.009-.673,2.307-1.346,3.316-2.018,1.346-.673,2.98-.673,3.652,1.346,1.682.336,1.682-.673,2.018-2.018a4.639,4.639,0,0,1,1.009-2.307c0-1.346.337-2.643.337-3.989,0-2.018,1.346-2.643,2.98-2.307h0c1.009,0,2.018-.336,2.643-.336,2.307.336,2.643-.336,2.018-2.307-.336-1.346-1.346-2.643.673-3.652h0a19.6,19.6,0,0,0,2.643-2.643c-.336-1.682.673-2.643,2.643-2.643h0V101.76L217.05,122.713Z" transform="translate(45.559 354.917)" fill="#08616a"/>
      <path id="Path_156" data-name="Path 156" d="M223.69,100.98Z" transform="translate(69.868 351.949)" fill="#08616a"/>
      <path id="Path_157" data-name="Path 157" d="M166.358,110.692a12.89,12.89,0,0,0-2.018,4.662l3.989-6.344h-.336C167.368,109.01,166.695,110.019,166.358,110.692Z" transform="translate(-155.045 382.509)" fill="#30b78d"/>
      <path id="Path_158" data-name="Path 158" d="M174.729,118.466c-.673,2.307-2.643,4.325-3.989,6.344-1.682,1.682-3.316,2.98-5.334,4.662-.336.336-.336.673-.673,1.009-2.98,2.643-2.98,2.98-.673,6.68.337.336.337.673.673,1.009.673.336,1.009,1.009,1.682,1.346,2.018.336,3.989.336,6.007.673a7.948,7.948,0,0,1-.336,2.643h2.307a33.748,33.748,0,0,1,1.009,3.989c1.009-1.682,1.682-2.643,2.307-3.652,2.018-.673.336-2.307.673-3.652a6.2,6.2,0,0,0,2.307-.336l.336-.673c-.336-2.018-.673-3.652-1.009-5.671,0-.336-.673-1.009-.336-1.346,1.346-2.307,2.307-5,0-7.978,4.325,1.009,5,2.98,2.643,6.007.673,1.009,1.682,2.018,2.307,2.98L205.245,98.57l-29.94,15.667A7.853,7.853,0,0,1,174.729,118.466Z" transform="translate(-162.406 342.777)" fill="#30b78d"/>
      <path id="Path_159" data-name="Path 159" d="M283.322,45.316c.673-2.643,0-3.989-2.307-5.671-8.987-5.334-18.31-10.669-27.3-15.955L221.76,78.957l58.583-22.3C281.352,52.957,282.361,48.968,283.322,45.316Z" transform="translate(63.484 57.799)" fill="#5ec1a3"/>
      <path id="Path_160" data-name="Path 160" d="M218.607,183.54c1.346.337,2.643,2.98,4.325.673h0c-1.009-1.346.336-4.662,2.643-5.334a29.115,29.115,0,0,1,5.671-.673c1.346,0,2.643,0,2.98,1.682,0,.336.673.336,1.346.673l34.6-66.56L173,151.966l8.314,7.978c.336-.336,1.346,0,2.98.336,1.346.336,2.643,1.009,4.325,1.346h0c.673,2.018,3.652,2.98,2.643,6.007,0,.336,1.009,1.009,1.346,1.346,1.682.673,3.316,1.346,4.662,2.018a9.877,9.877,0,0,1,2.643,2.643c.673.336,1.009,1.346,1.346,1.682,3.316.673,3.989,2.98,4.325,5.671.336,1.009.336,2.018.673,2.98l7.3,6.968c.336-.673.336-1.346.673-2.018C213.945,185.895,216.637,184.886,218.607,183.54Z" transform="translate(-122.087 401.5)" fill="#4dbc93"/>
      <path id="Path_161" data-name="Path 161" d="M176.771,97.366h0c.336,2.307-.673,3.652-2.643,4.662a49.918,49.918,0,0,0-5,3.316l11.63,10.669,5.334-21.963A57.619,57.619,0,0,1,176.771,97.366Z" transform="translate(-136.815 325.575)" fill="#4dbc93"/>
      <path id="Path_162" data-name="Path 162" d="M177.483,100.773l-1.346,1.346a26.6,26.6,0,0,0-4.662,11.294c-.336,2.98-.336,2.98-3.316,2.98h0c0,.673,0,1.682-.673,2.018a7.538,7.538,0,0,0-2.307,4.325l29.94-15.667L183.49,96.4A46.409,46.409,0,0,1,177.483,100.773Z" transform="translate(-151.848 334.518)" fill="#2db78e"/>
      <path id="Path_163" data-name="Path 163" d="M173,175.4l96.885-38.254L224.278,107.83Z" transform="translate(-122.087 378.018)" fill="#41ba8f"/>
      <path id="Path_164" data-name="Path 164" d="M229.277,179.846,242.589,96.61,183.67,150.531Z" transform="translate(-81.479 335.317)" fill="#1aad85"/>
      <path id="Path_165" data-name="Path 165" d="M183.67,176.6l58.919-53.921-27.3-32.92Z" transform="translate(-81.479 309.248)" fill="#1aa984"/>
      <path id="Path_166" data-name="Path 166" d="M198.183,90.958c.673,3.316,1.346,6.968,0,10.332a15.828,15.828,0,0,0,0,3.989,64.157,64.157,0,0,1-7.641.673c-2.307,0-4.325,0-6.007,2.018a11.2,11.2,0,0,1-2.018,1.009c-.673.336-1.682,1.009-2.307,1.346-1.009.336-2.018,1.009-2.98,1.346l30.949,72.9L239.8,97.686l-41.955-10A10.967,10.967,0,0,0,198.183,90.958Z" transform="translate(-105.988 301.37)" fill="#32b78a"/>
      <path id="Path_167" data-name="Path 167" d="M190.25,89.76l27.3,32.92,72.568-23.933Z" transform="translate(-56.437 309.248)" fill="#12987e"/>
      <path id="Path_168" data-name="Path 168" d="M199.45,92.67c-1.682.673-3.652,1.682-5.334,2.307-1.346.336-2.307,1.009-3.652,1.346-1.009.336-2.643.673-3.316,0-2.643-1.346-4.662-.673-6.68,1.009a19.176,19.176,0,0,1-3.652,2.307L171.48,121.6l58.583,44.261Z" transform="translate(-127.871 320.323)" fill="#56bd8f"/>
      <path id="Path_169" data-name="Path 169" d="M171.48,98.62l7.3,111.831,51.278-67.569Z" transform="translate(-127.871 342.967)" fill="#53bd8f"/>
      <path id="Path_170" data-name="Path 170" d="M213.24,124.48h0c.337,2.018,1.682,2.643,3.316,2.018,1.009-2.018,5.334-2.643,7.641-1.009a10.23,10.23,0,0,0,3.316,1.346,13.216,13.216,0,0,1,0,3.652c-.673,3.652-.336,4.325,3.652,4.325h1.009a17.687,17.687,0,0,0,1.682-3.652c.673-2.018.336-3.652-2.018-4.662a7.907,7.907,0,0,1-5-5.671h0c-1.346-.673-2.018-3.652-1.009-4.662a4.84,4.84,0,0,1,1.009.673l.336.336a60.351,60.351,0,0,0,2.98-5.334c.336-.336.336-.673.673-1.009a26.322,26.322,0,0,0,2.307-1.682l-1.346-2.98Z" transform="translate(31.059 371.701)" fill="#037b78"/>
      <path id="Path_171" data-name="Path 171" d="M225.4,141.419c.336,0,1.009-1.346,1.346-2.018a11,11,0,0,1,3.989-6.68c1.009-1.009,4.325.336,5.334,1.682a10.973,10.973,0,0,0,1.346,2.98c.673.961,1.346,2.307,2.018,3.316.336-.673.336-2.018,1.346-2.643,2.018-1.682,1.009-2.98-.673-4.325a16.481,16.481,0,0,1-2.018-2.307c0-.336.336-.336.336-.673,1.009,0,2.018.336,2.98.336,0-.673-.336-1.346-.336-2.018l-.336-.336c-2.307-1.682-2.307-2.307-1.009-3.989a16.492,16.492,0,0,0,2.307,2.018c.673.336,1.346,0,2.307-.336-.336-.673-.336-1.682-1.009-2.018-2.307-1.682-4.662-3.652-5.334-6.968a9.392,9.392,0,0,1,0-4.325,3.549,3.549,0,0,0,0-2.643L206.03,141.756l16.292,2.98C222.37,143.39,222.706,141.419,225.4,141.419Z" transform="translate(3.619 388.066)" fill="#037b78"/>
      <path id="Path_172" data-name="Path 172" d="M217.12,106.17h0l1.346,2.691h0Z" transform="translate(45.825 371.701)" fill="#037b78"/>
      <path id="Path_173" data-name="Path 173" d="M193.16,179.846l61.9,14.994L206.472,96.61Z" transform="translate(-45.362 335.317)" fill="#139a80"/>
      <path id="Path_174" data-name="Path 174" d="M191.08,193.143l18.983,9.323,1.009-1.009c1.009-1.009,2.307-1.346,3.316-2.307h0a11.162,11.162,0,0,0,1.682-2.307,3.639,3.639,0,0,0-.336-2.643c-1.009-2.307-2.018-4.325-3.316-6.968,1.682,0,2.307.336,3.652.336a43.783,43.783,0,0,0-2.018-3.989h0a1.845,1.845,0,0,0-2.98,0,2.521,2.521,0,0,1-1.682.336c0-.673-.336-1.346,0-1.682.673-1.009,1.682-2.018,2.307-2.98.336-.336.673-.336,1.009-.673.673-1.346,1.682-.673,2.018,0,.673,1.346.673,2.643,1.346,3.989a7.361,7.361,0,0,0,1.009,1.682c.673-.337,1.009-.673,1.682-1.009l2.018-2.018c.336-.673.336-1.346.673-2.018-4.325-.336-4.325-.336-2.307-3.652l-2.018-2.018h0c-.336-.336-1.009-.336-1.009-.673.673-1.346,1.009-2.98,1.682-3.989,1.009-1.009,2.018-2.643,3.652-1.009s1.682,3.989,1.682,6.344c-.673,1.346-.673,2.307.337,3.316,0,.673.673,1.682.336,2.018-1.346,2.307-3.316,4.325-4.662,6.344h0c0,.673-.336,1.346-.336,2.643,1.009-1.009,2.018-1.346,2.307-2.018,2.018-3.316,3.989-6.68,6.007-9.66,1.346-1.682,2.98-2.98,4.325-4.662.337-.336.673-1.009,1.346-1.346l-1.682-4.325c-.336,0-1.009-.336-1.346-.336.336-.337.336-1.009.673-1.346L215.109,125.91Z" transform="translate(-53.278 446.827)" fill="#3eba98"/>
      <path id="Path_175" data-name="Path 175" d="M243.077,140.058c0-2.307,1.682-3.652,4.662-3.989h0c-.673-.673-1.009-1.346-1.346-1.682-.673-.673-1.346-1.009-2.018-1.682,2.98-2.643,2.98-4.662-1.009-6.007-2.018-.673-2.643-1.346-2.018-3.316.673-2.98,1.009-6.344,1.682-9.66.336-1.682,2.018-2.98,2.98-4.325h0c1.009-3.316.673-7.3,5-8.987.336-1.009,1.009-2.018,1.346-2.98.336-.673.336-1.009.673-1.682,1.682-2.307,1.346-2.643-1.346-3.316A5.685,5.685,0,0,1,250,91.76L217.03,160.675Z" transform="translate(45.483 316.859)" fill="#055f68"/>
      <path id="Path_176" data-name="Path 176" d="M228.672,91.093h0c.336-1.009.336-1.682.673-2.643h-1.682l-2.643,5.671A6.29,6.29,0,0,1,228.672,91.093Z" transform="translate(75.891 304.262)" fill="#055f68"/>
      <path id="Path_177" data-name="Path 177" d="M227.3,95.943h0a9.845,9.845,0,0,1-.673-2.98,6.114,6.114,0,0,1,.673-2.643L223.98,97C225.326,96.616,226.287,96.279,227.3,95.943Z" transform="translate(71.933 311.379)" fill="#055f68"/>
      <path id="Path_178" data-name="Path 178" d="M217.12,122.763h0l25.615-20.953h0Z" transform="translate(45.825 355.108)" fill="#055f68"/>
      <path id="Path_179" data-name="Path 179" d="M223.42,100.98Z" transform="translate(69.802 351.949)" fill="#055f68"/>
      <path id="Path_180" data-name="Path 180" d="M240.069,185.825h0l32.968-68.915c-.336,0-.336,0-.673-.336.336,0,.673-.336,1.009-.336l3.316-6.68a8.079,8.079,0,0,1,1.346-2.98l2.643-5.671c-2.643,0-5.334,1.009-6.968-1.682h0a28.005,28.005,0,0,1-5.671-1.346,6.669,6.669,0,0,1-2.98-2.018c3.316-.336,6.344-1.346,8.987,1.346,1.682,1.346,6.344-.336,6.968-2.307.336-.336,0-1.009,0-1.682,0-.336-.673-.673-.673-.673a17.359,17.359,0,0,0,1.009-3.989c0-1.009-1.009-2.307-1.682-3.316h-1.346L211.09,116.526Z" transform="translate(22.876 292.046)" fill="#066568"/>
      <path id="Path_181" data-name="Path 181" d="M217.12,106.17Z" transform="translate(45.825 371.701)" fill="#066568"/>
      <path id="Path_182" data-name="Path 182" d="M268.5,91.63,195.93,115.563l101.835,45.943h0Z" transform="translate(-34.82 316.365)" fill="#0e746f"/>
      <path id="Path_183" data-name="Path 183" d="M217.12,106.17Z" transform="translate(45.825 371.701)" fill="#0e746f"/>
      <path id="Path_184" data-name="Path 184" d="M274.479,160.229c-1.682.336-.336,4.325-3.316,2.98-1.009-.673-1.682-2.307-2.307-3.316-.336,2.307-2.018,1.009-3.316,0-1.009.336-2.018,1.009-2.307.673-2.643-1.682-6.344-2.018-7.3-6.344,3.652,1.682,7.3,2.98,11.005,4.662,1.009-1.346,1.682-2.98,3.316-1.009.336.336.673,0,1.009,0a35.99,35.99,0,0,1,6.007.336c.673,0,1.009,1.682,1.682,2.643l18.647-18.31h0L195.76,96.6l48.587,98.519,31.958-31.286C276.786,162.247,275.776,161.238,274.479,160.229Z" transform="translate(-35.467 335.279)" fill="#108176"/>
      <path id="Path_185" data-name="Path 185" d="M217.12,106.17Z" transform="translate(45.825 371.701)" fill="#108176"/>
      <path id="Path_186" data-name="Path 186" d="M259.389,76.513c.673-.336,1.346,0,1.682-.336,1.346-1.346,2.307-1.009,3.652,0,1.009-.336,2.643-.673,2.643-1.346,0-1.346,0-2.98-1.009-3.652a11.194,11.194,0,0,0-5-2.018c-5.334-1.009-10.669-2.643-14.994-6.68A7.765,7.765,0,0,0,243.05,60.8c-1.346-.673-2.98-1.009-4.325-2.018L221.76,76.417l37.629.1Z" transform="translate(63.484 191.344)" fill="#0eb191"/>
      <path id="Path_187" data-name="Path 187" d="M197.391,147.536c.337-1.346,1.009-2.643,1.346-3.989a6.265,6.265,0,0,1,.673,2.307c0,2.018.336,2.98,2.643,2.98,1.009,0,2.018,1.346,2.98,2.018h0a4.424,4.424,0,0,1,2.307,5c-.336,7.3-1.009,14.658-5,21.29a99.533,99.533,0,0,0-5.334,10.332l5.334,5.671,23.308-67.233L188.02,144.893A29.23,29.23,0,0,1,197.391,147.536Z" transform="translate(-64.924 446.827)" fill="#48bc98"/>
      <path id="Path_188" data-name="Path 188" d="M173,121.89Z" transform="translate(-122.087 431.528)" fill="#50bc93"/>
      <path id="Path_189" data-name="Path 189" d="M164.318,116.758l2.307,11.005c2.018,1.009,3.989,2.643,6.344,3.652a10.231,10.231,0,0,0,3.316,1.346,7.353,7.353,0,0,1,1.682,1.009c2.307,3.652,4.325,7.3,6.68,11.005a11.16,11.16,0,0,0,2.307,1.682,16.489,16.489,0,0,0,2.307,2.018h0c2.018-.336,2.98.673,3.316,2.643.673,3.652,4.662,6.007,8.314,5.671a5.169,5.169,0,0,1,2.98,1.009l-39.6-46.28C164.318,113.106,164.318,115.124,164.318,116.758Z" transform="translate(-155.311 392.062)" fill="#50bc93"/>
      <path id="Path_190" data-name="Path 190" d="M166.57,113.956c0,.336-.336.673-.673,1.009h0c-.673,0-1.346.336-2.307.336v2.307c0,4.325.336,4.325,4.325,5.671.336,0,.673.336,1.346.336l-2.307-11.005A2.288,2.288,0,0,0,166.57,113.956Z" transform="translate(-157.899 396.21)" fill="#2fb88f"/>
      <path id="Path_191" data-name="Path 191" d="M197.664,144.391h0l-5.334-5.671c-1.009,2.018-2.018,4.325-2.98,6.68l8.314-1.009Z" transform="translate(-59.862 495.58)" fill="#5cbf98"/>
      <path id="Path_192" data-name="Path 192" d="M206.472,171.5l48.587-42.579-61.9-14.994Z" transform="translate(-45.362 401.234)" fill="#1aaa8a"/>
      <path id="Path_193" data-name="Path 193" d="M180,128.88h0c.336.336.673.336.673.673-1.346,2.98,1.346,4.325,2.98,6.007A7.037,7.037,0,0,1,185,137.578c.673-.336,1.682-.336,1.682-.673.336-.336.336-.673.673-1.009L180,128.88Z" transform="translate(-95.446 457.17)" fill="#65c196"/>
      <path id="Path_194" data-name="Path 194" d="M173,121.89a19.615,19.615,0,0,0,5.334,8.65,7.354,7.354,0,0,1,1.009,1.682h0c.336,0,1.009.336,1.346.336.336-1.682.336-2.307.673-2.643L173,121.89Z" transform="translate(-122.087 431.528)" fill="#65c196"/>
      <path id="Path_195" data-name="Path 195" d="M190.25,133.26l99.864,8.987-61.9-63.917Z" transform="translate(-56.437 265.747)" fill="#1da384"/>
      <path id="Path_196" data-name="Path 196" d="M208.912,137.667c.673,0,1.346,0,1.346.336,1.346,1.346,2.307,2.98,3.989,5,.336-1.682.673-2.98,1.009-4.325,0-.673.336-1.009.336-1.682h0c-2.018-2.018-.336-3.316,1.009-4.662-.336-.336-.336-1.009-.673-1.009-1.682-.673-1.009-2.018-.336-2.98,1.009-1.682,2.018-1.009,3.316-.673,1.346.673,2.643,1.346,4.325,2.307-.336,1.009-.673,2.307-1.346,3.989a37.528,37.528,0,0,1,5-1.346c0,.336.337.673.337,1.009-2.018,1.009-4.325,2.018-6.344,2.98l-.336.336c-2.643,3.652-5,6.968-7.641,10.669h1.346c1.682-1.682,3.316-2.98,5.334-4.662,1.346-1.009,2.643-2.643,4.325-3.316,3.652-2.018,7.3-3.316,10.669-5.334,1.346-.673,2.307-2.018,3.652-3.316h0l-2.98-2.98c-.336,0-.336-.336-.336-.673a11.837,11.837,0,0,1-3.652-2.307c-.673-1.009-3.652-.673-5.671-1.009-1.009,0-2.643.336-2.98-.336-.673-.673-.673-2.307-.336-3.316v-.336l-16.292-2.98Z" transform="translate(3.429 413.108)" fill="#139585"/>
      <path id="Path_197" data-name="Path 197" d="M207.739,122.1c-.336.336-.673.336-1.009.673l.673,4.325C210.094,126.762,210.431,125.752,207.739,122.1Z" transform="translate(6.283 432.327)" fill="#139585"/>
      <path id="Path_198" data-name="Path 198" d="M226.435,174.287a40.2,40.2,0,0,0,5-5.671c1.009-1.009,1.682-2.018,2.643-2.98l2.98-2.98c2.307-2.018,4.325-4.325,6.68-6.344a7.476,7.476,0,0,0,3.652-5.671h-1.346c-1.346,2.018-2.643,3.652-5,3.316-.673,2.643-2.018,2.98-5,2.307h0c1.009,2.307,0,3.989-3.652,6.007-.673-2.643-.673-5,.673-6.968,1.346-2.018.336-2.307-1.346-2.643a4.524,4.524,0,0,0-2.98,0c-3.316.673-3.652.336-3.989-2.98h1.682c0-1.009-2.643-5-3.316-5a7.355,7.355,0,0,1-1.682-1.009c-.336-.336-.336-1.346-.673-2.018a4.267,4.267,0,0,1,2.018.336,8.593,8.593,0,0,1,2.98,1.682,8.449,8.449,0,0,1,1.346,2.98h0c1.682,0,3.316.336,5.671.336,0,.336.673,1.346,1.009,2.307a4.781,4.781,0,0,1,2.018-.673h0a10.232,10.232,0,0,1,4.325-2.307c.673-.336,2.018,1.346,2.98,2.018h0a24.336,24.336,0,0,1,4.662-1.346,1.236,1.236,0,0,0,1.009-.336l-.673-4.325c-.673.336-1.346,1.009-2.018,1.346-.336-2.307-1.682-4.325.673-5.671a1.175,1.175,0,0,1,.673-.336l-2.98-20.617L195.87,159.629,225.137,177.6C225.426,176.594,225.089,175.3,226.435,174.287Z" transform="translate(-35.048 413.108)" fill="#17a58b"/>
      <path id="Path_199" data-name="Path 199" d="M211.184,164.609c.673-1.346,1.009-2.307,3.316-1.346.673-1.346,1.009-2.98,1.682-4.325,2.307-3.989,4.325-7.978,6.68-11.966.336-.673,1.346-1.009,2.018-1.682h0a2.023,2.023,0,0,0,.336-1.346L195.95,125.97Z" transform="translate(-34.744 447.056)" fill="#24b898"/>
      <path id="Path_200" data-name="Path 200" d="M201.567,138.012a1.844,1.844,0,0,0,0-2.98c-.673-.336-1.682-.336-2.307-.673l1.682,4.325A.72.72,0,0,0,201.567,138.012Z" transform="translate(-22.146 478.986)" fill="#24b898"/>
      <path id="Path_201" data-name="Path 201" d="M191.411,140.8a7.352,7.352,0,0,1-1.009,1.682c-.673,1.682-.673,3.652-1.009,5.334-.336,1.346-.336,2.643-.673,3.989l11.294-11.967Z" transform="translate(-62.26 499.842)" fill="#62c19a"/>
      <path id="Path_202" data-name="Path 202" d="M191.08,139.9Z" transform="translate(-53.278 500.07)" fill="#62c19a"/>
      <path id="Path_203" data-name="Path 203" d="M189.578,151.708c-.336,1.346-.336,2.643-.673,3.989,0,1.009-.336,1.682-.336,2.643-.336,2.98.673,3.989,3.652,3.652h3.652a10.906,10.906,0,0,0,7.3-1.009,14.761,14.761,0,0,0,3.652-2.307c.336-.336.336-1.009.673-1.682-2.018.336-3.652,1.009-5.671,1.346,0-2.307,1.346-2.643,2.98-2.98,3.652-.673,3.652-.673,2.307-4.325a4.781,4.781,0,0,1,2.018-.673,7.4,7.4,0,0,1,2.643.673c-.336,1.009-.336,2.018-.673,2.98-.337.673-1.009,1.009-1.682,1.682.336,1.346,0,2.98,2.018,3.316,1.682-2.018,2.98-3.652,4.662-5.671l3.989-3.989-18.983-9.323Z" transform="translate(-63.07 500.565)" fill="#55be9d"/>
      <path id="Path_204" data-name="Path 204" d="M191.08,139.9Z" transform="translate(-53.278 500.07)" fill="#55be9d"/>
      <path id="Path_205" data-name="Path 205" d="M200.024,139.9h0L188.73,152.2h0Z" transform="translate(-62.221 500.07)" fill="#55be9d"/>
      <path id="Path_206" data-name="Path 206" d="M198.844,98.62l-20.617,33.929a16.477,16.477,0,0,1,2.018,2.307c2.018-.336,4.325-1.682,6.68.673-1.009.336-1.682,1.009-2.307,1.009-2.643,0-4.325,1.682-6.007,3.652a12.36,12.36,0,0,1-2.018,2.307l-.673.673c-.673,2.018-2.643,1.009-3.989,1.346-.673,1.682-1.346,3.316-3.316,3.989l-3.989,6.344a14.812,14.812,0,0,0-.336,4.325v1.682l39.263,46.953h.336c.673.673,1.682,1.346,1.682,2.018a1.236,1.236,0,0,0,.336,1.009h0Z" transform="translate(-155.235 342.967)" fill="#45ba8f"/>
      <path id="Path_207" data-name="Path 207" d="M166.626,107l-.336.673h.673A1.042,1.042,0,0,1,166.626,107Z" transform="translate(-147.624 374.86)" fill="#45ba8f"/>
      <path id="Path_208" data-name="Path 208" d="M185.96,180.528h.673c1.682-.336,2.98-1.009,4.325-1.346l.673.673-2.98,2.98h0c-.673,2.307-1.682,5-2.307,7.3h0c2.018,0,3.989.336,5.671.336h4.325l37.629-18.983L220.658,113.92Z" transform="translate(-72.763 401.196)" fill="#38b991"/>
    </g>
  </g>
</svg>